<?xml version="1.0" encoding="UTF-8"?>
<svg width="256px" height="256px" viewBox="0 0 256 256" version="1.1" xmlns="http://www.w3.org/2000/svg" xmlns:xlink="http://www.w3.org/1999/xlink">
    <!-- Generator: Sketch 49.2 (51160) - http://www.bohemiancoding.com/sketch -->
    <title>Simple Tags Importer </title>
    <desc>Created with Sketch.</desc>
    <defs>
        <linearGradient x1="50%" y1="-2.48949813e-15%" x2="50%" y2="100%" id="linearGradient-1">
            <stop stop-color="#99D9ED" offset="0%"></stop>
            <stop stop-color="#33B3DB" offset="100%"></stop>
        </linearGradient>
        <linearGradient x1="50%" y1="0%" x2="50%" y2="100%" id="linearGradient-2">
            <stop stop-color="#FBFBFC" offset="0%"></stop>
            <stop stop-color="#F3F4F5" offset="100%"></stop>
        </linearGradient>
        <path d="M72.4713872,111 L92.0026372,111 C95.2497075,111 97.8620122,113.612305 97.8620122,116.859375 L97.8620122,157.875 L119.273145,157.875 C123.618848,157.875 125.7917,163.124023 122.715528,166.200195 L85.5817387,203.358398 C83.750684,205.189453 69.2243168,111 72.4713872,111 Z" id="path-3"></path>
        <filter x="-2.9%" y="-1.6%" width="105.8%" height="103.2%" filterUnits="objectBoundingBox" id="filter-4">
            <feMorphology radius="0.5" operator="dilate" in="SourceAlpha" result="shadowSpreadOuter1"></feMorphology>
            <feOffset dx="0" dy="0" in="shadowSpreadOuter1" result="shadowOffsetOuter1"></feOffset>
            <feColorMatrix values="0 0 0 0 0.11372549   0 0 0 0 0.11372549   0 0 0 0 0.105882353  0 0 0 0.1 0" type="matrix" in="shadowOffsetOuter1"></feColorMatrix>
        </filter>
        <path d="M52.734375,0 L72.265625,0 C75.5126953,0 78.125,2.61230469 78.125,5.859375 L78.125,46.875 L99.5361328,46.875 C103.881836,46.875 106.054687,52.1240234 102.978516,55.2001953 L65.8447266,92.3583984 C64.0136719,94.1894531 61.0107422,94.1894531 59.1796875,92.3583984 L21.9970703,55.2001953 C18.9208984,52.1240234 21.09375,46.875 25.4394531,46.875 L46.875,46.875 L46.875,5.859375 C46.875,2.61230469 49.4873047,0 52.734375,0 Z M125,91.796875 L125,119.140625 C125,122.387695 122.387695,125 119.140625,125 L5.859375,125 C2.61230469,125 0,122.387695 0,119.140625 L0,91.796875 C0,88.5498047 2.61230469,85.9375 5.859375,85.9375 L41.6748047,85.9375 L53.6376953,97.9003906 C58.5449219,102.807617 66.4550781,102.807617 71.3623047,97.9003906 L83.3251953,85.9375 L119.140625,85.9375 C122.387695,85.9375 125,88.5498047 125,91.796875 Z" id="path-5"></path>
        <filter x="-26.4%" y="-26.4%" width="152.8%" height="152.8%" filterUnits="objectBoundingBox" id="filter-6">
            <feMorphology radius="1" operator="dilate" in="SourceAlpha" result="shadowSpreadOuter1"></feMorphology>
            <feOffset dx="0" dy="0" in="shadowSpreadOuter1" result="shadowOffsetOuter1"></feOffset>
            <feGaussianBlur stdDeviation="10" in="shadowOffsetOuter1" result="shadowBlurOuter1"></feGaussianBlur>
            <feColorMatrix values="0 0 0 0 0   0 0 0 0 0.403921569   0 0 0 0 0.6  0 0 0 0.4 0" type="matrix" in="shadowBlurOuter1"></feColorMatrix>
        </filter>
    </defs>
    <g id="Simple-Tags-Importer-" stroke="none" stroke-width="1" fill="none" fill-rule="evenodd">
        <rect id="Rectangle" fill="url(#linearGradient-1)" x="0" y="0" width="256" height="256"></rect>
        <g id="Group-2" transform="translate(76.000000, 20.000000)">
            <rect id="Rectangle-3" fill="#FFFFFF" x="0" y="0" width="160" height="160" rx="26"></rect>
            <g id="simple-tags" transform="translate(13.000000, 13.000000)" fill-rule="nonzero">
                <g id="Group" transform="translate(5.400000, 8.100000)">
                    <path d="M73.2485593,41.7857143 L50.3649153,41.7857143 C49.2155085,41.7857143 48.2750847,40.8455357 48.2750847,39.6964286 L48.2750847,2.40267857 C48.2750847,1.25357143 49.2155085,0.313392857 50.3649153,0.313392857 L73.2485593,0.313392857 C74.3979661,0.313392857 75.3383898,1.25357143 75.3383898,2.40267857 L75.3383898,39.6964286 C75.3383898,40.8455357 74.3979661,41.7857143 73.2485593,41.7857143 Z" id="Shape" fill="#FF6B53"></path>
                    <path d="M60.2916102,52.5455357 L49.1110169,41.3678571 C48.2750847,40.5321429 48.2750847,39.2785714 49.1110169,38.4428571 L60.2916102,27.1607143 C61.1275424,26.325 62.3814407,26.325 63.2173729,27.1607143 L74.5024576,38.4428571 C75.3383898,39.2785714 75.3383898,40.5321429 74.5024576,41.3678571 L63.3218644,52.5455357 C62.4859322,53.38125 61.1275424,53.38125 60.2916102,52.5455357 Z" id="Shape" fill="#FF6B53"></path>
                    <ellipse id="Oval" fill="#FFFFFF" cx="61.7544915" cy="47.1133929" rx="2.29881356" ry="2.29821429"></ellipse>
                    <ellipse id="Oval" fill="#FFFFFF" cx="61.7544915" cy="60.69375" rx="5.64254237" ry="5.64107143"></ellipse>
                    <path d="M83.3842373,65.7080357 L76.2788136,43.9794643 C75.965339,42.8303571 76.4877966,41.68125 77.6372034,41.3678571 L113.059831,29.8767857 C114.209237,29.5633929 115.358644,30.0857143 115.672119,31.2348214 L122.777542,52.9633929 C123.091017,54.1125 122.568559,55.2616071 121.419153,55.575 L85.9965254,67.0660714 C84.8471186,67.3794643 83.6977119,66.8571429 83.3842373,65.7080357 Z" id="Shape" fill="#FF6B53"></path>
                    <path d="M69.0688983,56.8285714 L76.2788136,42.6214286 C76.8012712,41.5767857 78.0551695,41.1589286 79.1000847,41.68125 L93.2064407,48.8892857 C94.2513559,49.4116071 94.669322,50.6651786 94.1468644,51.7098214 L86.9369492,65.9169643 C86.4144915,66.9616071 85.1605932,67.3794643 84.115678,66.8571429 L70.009322,59.6491071 C68.9644068,59.1267857 68.5464407,57.8732143 69.0688983,56.8285714 Z" id="Shape" fill="#FF6B53"></path>
                    <ellipse id="Oval" fill="#FFFFFF" cx="74.7114407" cy="56.5151786" rx="2.29881356" ry="2.29821429"></ellipse>
                    <ellipse id="Oval" fill="#FFFFFF" cx="61.7544915" cy="60.69375" rx="5.64254237" ry="5.64107143"></ellipse>
                    <path d="M41.3786441,69.2598214 L59.8736441,82.7357143 C60.8140678,83.3625 61.0230508,84.7205357 60.2916102,85.6607143 L38.3483898,115.746429 C37.7214407,116.686607 36.3630508,116.895536 35.4226271,116.164286 L16.9276271,102.688393 C15.9872034,102.061607 15.7782203,100.703571 16.509661,99.7633929 L38.4528814,69.6776786 C39.184322,68.8419643 40.4382203,68.6330357 41.3786441,69.2598214 Z" id="Shape" fill="#FF6B53"></path>
                    <path d="M58.2017797,68.1107143 L60.7095763,83.7803571 C60.9185593,84.9294643 60.0826271,85.9741071 58.9332203,86.1830357 L43.2594915,88.6901786 C42.1100847,88.8991071 41.0651695,88.0633929 40.8561864,86.9142857 L38.3483898,71.2446429 C38.1394068,70.0955357 38.975339,69.0508929 40.1247458,68.8419643 L55.7984746,66.3348214 C56.9478814,66.1258929 57.9927966,66.9616071 58.2017797,68.1107143 Z" id="Shape" fill="#FF6B53"></path>
                    <ellipse id="Oval" fill="#FFFFFF" cx="53.8131356" cy="71.6625" rx="2.29881356" ry="2.29821429"></ellipse>
                    <ellipse id="Oval" fill="#FFFFFF" cx="61.7544915" cy="60.69375" rx="5.64254237" ry="5.64107143"></ellipse>
                    <path d="M47.334661,43.9794643 L40.2292373,65.7080357 C39.9157627,66.8571429 38.6618644,67.3794643 37.6169492,67.0660714 L2.19432203,55.575 C1.04491525,55.2616071 0.522457627,54.0080357 0.835932203,52.9633929 L7.94135593,31.2348214 C8.25483051,30.0857143 9.50872881,29.5633929 10.5536441,29.8767857 L45.9762712,41.3678571 C47.0211864,41.68125 47.6481356,42.8303571 47.334661,43.9794643 Z" id="Shape" fill="#FF6B53"></path>
                    <path d="M53.6041525,59.5446429 L39.3933051,66.7526786 C38.3483898,67.275 37.0944915,66.8571429 36.5720339,65.8125 L29.3621186,51.7098214 C28.839661,50.6651786 29.2576271,49.4116071 30.3025424,48.8892857 L44.5133898,41.68125 C45.5583051,41.1589286 46.8122034,41.5767857 47.334661,42.6214286 L54.5445763,56.7241071 C55.0670339,57.76875 54.6490678,59.0223214 53.6041525,59.5446429 Z" id="Shape" fill="#FF6B53"></path>
                    <ellipse id="Oval" fill="#FFFFFF" cx="48.9020339" cy="56.5151786" rx="2.29881356" ry="2.29821429"></ellipse>
                    <ellipse id="Oval" fill="#FFFFFF" cx="61.7544915" cy="60.69375" rx="5.64254237" ry="5.64107143"></ellipse>
                    <path d="M63.635339,82.7357143 L82.130339,69.2598214 C83.0707627,68.6330357 84.324661,68.7375 85.0561017,69.6776786 L106.999322,99.7633929 C107.626271,100.703571 107.52178,101.957143 106.581356,102.688393 L88.0863559,116.164286 C87.1459322,116.791071 85.8920339,116.686607 85.1605932,115.746429 L63.2173729,85.6607143 C62.4859322,84.7205357 62.6949153,83.3625 63.635339,82.7357143 Z" id="Shape" fill="#FF6B53"></path>
                    <path d="M67.7105085,66.3348214 L83.3842373,68.8419643 C84.5336441,69.0508929 85.2650847,70.0955357 85.1605932,71.2446429 L82.6527966,86.9142857 C82.4438136,88.0633929 81.3988983,88.7946429 80.2494915,88.6901786 L64.5757627,86.1830357 C63.4263559,85.9741071 62.6949153,84.9294643 62.7994068,83.7803571 L65.3072034,68.1107143 C65.5161864,66.9616071 66.5611017,66.2303571 67.7105085,66.3348214 Z" id="Shape" fill="#FF6B53"></path>
                    <ellipse id="Oval" fill="#FFFFFF" cx="69.800339" cy="71.6625" rx="2.29881356" ry="2.29821429"></ellipse>
                </g>
            </g>
        </g>
        <g id="Path">
            <use fill="black" fill-opacity="1" filter="url(#filter-4)" xlink:href="#path-3"></use>
            <use fill="url(#linearGradient-2)" fill-rule="evenodd" xlink:href="#path-3"></use>
        </g>
        <g id="download" transform="translate(20.000000, 111.000000)" fill-rule="nonzero">
            <g>
                <use fill="black" fill-opacity="1" filter="url(#filter-6)" xlink:href="#path-5"></use>
                <use fill="url(#linearGradient-2)" fill-rule="evenodd" xlink:href="#path-5"></use>
            </g>
        </g>
    </g>
</svg>